<svg width="91.39999999999999px" height="146.4375030517578px" xmlns="http://www.w3.org/2000/svg" viewBox="204.3 1.7812484741210994 91.39999999999999 146.4375030517578" style="background: rgba(0, 0, 0, 0);" preserveAspectRatio="xMidYMid"><defs><filter id="editing-jagged" x="-100%" y="-100%" width="300%" height="300%"><feTurbulence result="turb" baseFrequency="0.1" numOctaves="1" seed="1"></feTurbulence><feDisplacementMap in="SourceGraphic" in2="turb" scale="10"></feDisplacementMap></filter></defs><g filter="url(#editing-jagged)"><g transform="translate(223.12000036239624, 103)"><path d="M33.76-25.76L49.92-27.20L49.92-27.20Q44.16-14.56 44.16 0.08L44.16 0.08L44.16 0.08Q42 1.60 38.84 1.60L38.84 1.60L38.84 1.60Q35.68 1.60 33.68 0.12L33.68 0.12L33.68 0.12Q31.68-1.36 31.28-2.88L31.28-2.88L31.28-2.88Q29.28-0.80 26.04 0.40L26.04 0.40L26.04 0.40Q22.80 1.60 19.36 1.60L19.36 1.60L19.36 1.60Q15.92 1.60 12.92 0.48L12.92 0.48L12.92 0.48Q9.92-0.64 7.60-3.12L7.60-3.12L7.60-3.12Q2.48-8.56 2.48-18.88L2.48-18.88L2.48-18.88Q2.48-34.88 11.04-44.48L11.04-44.48L11.04-44.48Q19.84-54.40 35.44-54.40L35.44-54.40L35.44-54.40Q46.24-54.40 50.08-48.80L50.08-48.80L50.08-48.80Q51.28-47.04 51.28-44.92L51.28-44.92L51.28-44.92Q51.28-42.80 50.36-41L50.36-41L50.36-41Q49.44-39.20 48-37.76L48-37.76L48-37.76Q44.56-34.56 40.32-34.56L40.32-34.56L40.32-34.56Q38.64-34.56 37.04-35.12L37.04-35.12L37.04-35.12Q37.36-37.52 37.36-40.32L37.36-40.32L37.36-40.32Q37.36-43.12 37.16-44.40L37.16-44.40L37.16-44.40Q36.96-45.68 36.48-46.72L36.48-46.72L36.48-46.72Q35.44-48.88 33.16-48.88L33.16-48.88L33.16-48.88Q30.88-48.88 28.36-46.44L28.36-46.44L28.36-46.44Q25.84-44 23.84-40L23.84-40L23.84-40Q19.44-31.04 19.44-20.24L19.44-20.24L19.44-20.24Q19.44-15.28 21.36-11.76L21.36-11.76L21.36-11.76Q23.44-7.92 27.12-7.92L27.12-7.92L27.12-7.92Q28.40-7.92 29.56-8.56L29.56-8.56L29.56-8.56Q30.72-9.20 31.20-9.68L31.20-9.68L33.76-25.76Z" fill="#444"></path></g></g><style>text {
  font-size: 64px;
  font-family: Arial Black;
  dominant-baseline: central;
  text-anchor: middle;
}</style></svg>